<mxfile host="app.diagrams.net" agent="Mozilla/5.0 (Windows NT 10.0; Win64; x64) AppleWebKit/537.36 (KHTML, like Gecko) Chrome/128.0.0.0 Safari/537.36 Edg/128.0.0.0" version="24.7.12">
  <diagram name="Page-1" id="2JKGeln6onRXJEOdc7YK">
    <mxGraphModel dx="2231" dy="1161" grid="0" gridSize="10" guides="1" tooltips="1" connect="1" arrows="1" fold="1" page="0" pageScale="1" pageWidth="1169" pageHeight="1654" math="0" shadow="0">
      <root>
        <mxCell id="0" />
        <mxCell id="1" parent="0" />
        <mxCell id="YA7fnJn_Lvs0VxRTKb7O-3" value="" style="rounded=1;whiteSpace=wrap;html=1;" parent="1" vertex="1">
          <mxGeometry x="-317" y="-39" width="177" height="311" as="geometry" />
        </mxCell>
        <mxCell id="YA7fnJn_Lvs0VxRTKb7O-6" value="" style="rounded=0;whiteSpace=wrap;html=1;" parent="1" vertex="1">
          <mxGeometry x="-316.5" y="16" width="175" height="298" as="geometry" />
        </mxCell>
        <mxCell id="YA7fnJn_Lvs0VxRTKb7O-14" value="Rental" style="text;html=1;align=center;verticalAlign=middle;whiteSpace=wrap;rounded=0;fontSize=16;" parent="1" vertex="1">
          <mxGeometry x="-255" y="-18" width="60" height="30" as="geometry" />
        </mxCell>
        <mxCell id="YA7fnJn_Lvs0VxRTKb7O-15" value="&lt;span class=&quot;hljs-operator&quot;&gt;-&lt;/span&gt; id: &lt;span class=&quot;hljs-type&quot;&gt;int&lt;/span&gt;&amp;nbsp;&lt;br&gt;&lt;span class=&quot;hljs-operator&quot;&gt;-&lt;/span&gt; memberName: String&amp;nbsp;&lt;br&gt;&lt;span class=&quot;hljs-operator&quot;&gt;-&lt;/span&gt; gameName: String&amp;nbsp;&lt;br&gt;&lt;span class=&quot;hljs-operator&quot;&gt;-&lt;/span&gt; rentDuration: &lt;span class=&quot;hljs-type&quot;&gt;int&lt;/span&gt;&lt;br&gt;&lt;span class=&quot;hljs-operator&quot;&gt;-&lt;/span&gt; price: int&lt;div&gt;&lt;br&gt;&lt;/div&gt;" style="text;html=1;align=center;verticalAlign=middle;whiteSpace=wrap;rounded=0;fontSize=16;" parent="1" vertex="1">
          <mxGeometry x="-379" y="10" width="298" height="177" as="geometry" />
        </mxCell>
        <mxCell id="YA7fnJn_Lvs0VxRTKb7O-16" value="" style="rounded=0;whiteSpace=wrap;html=1;" parent="1" vertex="1">
          <mxGeometry x="-313" y="169" width="176" height="154" as="geometry" />
        </mxCell>
        <mxCell id="YA7fnJn_Lvs0VxRTKb7O-17" value="&lt;span class=&quot;hljs-operator&quot;&gt;+&lt;/span&gt;&amp;nbsp;AmountPay(): &lt;span class=&quot;hljs-type&quot;&gt;int&lt;/span&gt;&lt;div&gt;&lt;span class=&quot;hljs-operator&quot;&gt;+&lt;/span&gt; displayData(): void&amp;nbsp;&lt;br&gt;&lt;/div&gt;" style="text;html=1;align=center;verticalAlign=middle;whiteSpace=wrap;rounded=0;fontSize=16;" parent="1" vertex="1">
          <mxGeometry x="-315.5" y="226" width="180.5" height="27" as="geometry" />
        </mxCell>
        <mxCell id="QqICuxj03aexZKJ_AvJ_-1" value="" style="edgeStyle=orthogonalEdgeStyle;rounded=0;orthogonalLoop=1;jettySize=auto;html=1;" edge="1" parent="1" source="QqICuxj03aexZKJ_AvJ_-2" target="QqICuxj03aexZKJ_AvJ_-4">
          <mxGeometry relative="1" as="geometry" />
        </mxCell>
        <mxCell id="QqICuxj03aexZKJ_AvJ_-2" value=" Start" style="rounded=1;whiteSpace=wrap;html=1;" vertex="1" parent="1">
          <mxGeometry x="340" y="60" width="120" height="60" as="geometry" />
        </mxCell>
        <mxCell id="QqICuxj03aexZKJ_AvJ_-3" value="" style="edgeStyle=orthogonalEdgeStyle;rounded=0;orthogonalLoop=1;jettySize=auto;html=1;" edge="1" parent="1" source="QqICuxj03aexZKJ_AvJ_-4">
          <mxGeometry relative="1" as="geometry">
            <mxPoint x="400" y="300" as="targetPoint" />
          </mxGeometry>
        </mxCell>
        <mxCell id="QqICuxj03aexZKJ_AvJ_-4" value="Open Tokopedia App" style="rounded=0;whiteSpace=wrap;html=1;" vertex="1" parent="1">
          <mxGeometry x="340" y="190" width="120" height="60" as="geometry" />
        </mxCell>
        <mxCell id="QqICuxj03aexZKJ_AvJ_-5" value="" style="edgeStyle=orthogonalEdgeStyle;rounded=0;orthogonalLoop=1;jettySize=auto;html=1;" edge="1" parent="1">
          <mxGeometry relative="1" as="geometry">
            <mxPoint x="400" y="360" as="sourcePoint" />
            <mxPoint x="400" y="450.0000000000002" as="targetPoint" />
          </mxGeometry>
        </mxCell>
        <mxCell id="QqICuxj03aexZKJ_AvJ_-6" value="search item" style="rounded=0;whiteSpace=wrap;html=1;" vertex="1" parent="1">
          <mxGeometry x="340" y="300" width="120" height="60" as="geometry" />
        </mxCell>
        <mxCell id="QqICuxj03aexZKJ_AvJ_-7" style="edgeStyle=orthogonalEdgeStyle;rounded=0;orthogonalLoop=1;jettySize=auto;html=1;" edge="1" parent="1" source="QqICuxj03aexZKJ_AvJ_-8" target="QqICuxj03aexZKJ_AvJ_-9">
          <mxGeometry relative="1" as="geometry" />
        </mxCell>
        <mxCell id="QqICuxj03aexZKJ_AvJ_-8" value="does the item&amp;nbsp; exist?&amp;nbsp;" style="rhombus;whiteSpace=wrap;html=1;" vertex="1" parent="1">
          <mxGeometry x="360" y="451" width="80" height="80" as="geometry" />
        </mxCell>
        <mxCell id="QqICuxj03aexZKJ_AvJ_-9" value="Add to Cart" style="rounded=0;whiteSpace=wrap;html=1;" vertex="1" parent="1">
          <mxGeometry x="560" y="590" width="120" height="60" as="geometry" />
        </mxCell>
        <mxCell id="QqICuxj03aexZKJ_AvJ_-10" value="Y" style="text;html=1;align=center;verticalAlign=middle;whiteSpace=wrap;rounded=0;" vertex="1" parent="1">
          <mxGeometry x="579" y="531" width="60" height="30" as="geometry" />
        </mxCell>
        <mxCell id="QqICuxj03aexZKJ_AvJ_-11" style="edgeStyle=none;curved=1;rounded=0;orthogonalLoop=1;jettySize=auto;html=1;fontSize=12;startSize=8;endSize=8;" edge="1" parent="1" source="QqICuxj03aexZKJ_AvJ_-12" target="QqICuxj03aexZKJ_AvJ_-15">
          <mxGeometry relative="1" as="geometry" />
        </mxCell>
        <mxCell id="QqICuxj03aexZKJ_AvJ_-12" value="&amp;nbsp;Is the item Correct?" style="rhombus;whiteSpace=wrap;html=1;" vertex="1" parent="1">
          <mxGeometry x="576" y="698" width="80" height="80" as="geometry" />
        </mxCell>
        <mxCell id="QqICuxj03aexZKJ_AvJ_-13" value="" style="endArrow=classic;html=1;rounded=0;fontSize=12;startSize=8;endSize=8;curved=1;exitX=0.462;exitY=0.977;exitDx=0;exitDy=0;exitPerimeter=0;" edge="1" parent="1" source="QqICuxj03aexZKJ_AvJ_-9" target="QqICuxj03aexZKJ_AvJ_-12">
          <mxGeometry width="50" height="50" relative="1" as="geometry">
            <mxPoint x="510" y="710" as="sourcePoint" />
            <mxPoint x="560" y="660" as="targetPoint" />
          </mxGeometry>
        </mxCell>
        <mxCell id="QqICuxj03aexZKJ_AvJ_-14" style="edgeStyle=none;curved=1;rounded=0;orthogonalLoop=1;jettySize=auto;html=1;fontSize=12;startSize=8;endSize=8;" edge="1" parent="1" source="QqICuxj03aexZKJ_AvJ_-15" target="QqICuxj03aexZKJ_AvJ_-22">
          <mxGeometry relative="1" as="geometry" />
        </mxCell>
        <mxCell id="QqICuxj03aexZKJ_AvJ_-15" value="Proceed to Checkout:" style="rounded=0;whiteSpace=wrap;html=1;" vertex="1" parent="1">
          <mxGeometry x="557" y="849" width="120" height="60" as="geometry" />
        </mxCell>
        <mxCell id="QqICuxj03aexZKJ_AvJ_-16" value="Y" style="text;html=1;align=center;verticalAlign=middle;whiteSpace=wrap;rounded=0;fontSize=16;" vertex="1" parent="1">
          <mxGeometry x="599" y="797" width="60" height="30" as="geometry" />
        </mxCell>
        <mxCell id="QqICuxj03aexZKJ_AvJ_-17" value="" style="endArrow=none;html=1;rounded=0;fontSize=12;startSize=8;endSize=8;curved=1;exitX=1;exitY=0.5;exitDx=0;exitDy=0;" edge="1" parent="1">
          <mxGeometry width="50" height="50" relative="1" as="geometry">
            <mxPoint x="656" y="738" as="sourcePoint" />
            <mxPoint x="790" y="738" as="targetPoint" />
          </mxGeometry>
        </mxCell>
        <mxCell id="QqICuxj03aexZKJ_AvJ_-18" value="" style="endArrow=none;html=1;rounded=0;fontSize=12;startSize=8;endSize=8;curved=1;" edge="1" parent="1">
          <mxGeometry width="50" height="50" relative="1" as="geometry">
            <mxPoint x="790" y="740" as="sourcePoint" />
            <mxPoint x="790" y="280" as="targetPoint" />
          </mxGeometry>
        </mxCell>
        <mxCell id="QqICuxj03aexZKJ_AvJ_-19" value="" style="endArrow=classic;html=1;rounded=0;fontSize=12;startSize=8;endSize=8;curved=1;" edge="1" parent="1">
          <mxGeometry width="50" height="50" relative="1" as="geometry">
            <mxPoint x="790" y="280" as="sourcePoint" />
            <mxPoint x="420" y="280" as="targetPoint" />
          </mxGeometry>
        </mxCell>
        <mxCell id="QqICuxj03aexZKJ_AvJ_-20" value="N" style="text;html=1;align=center;verticalAlign=middle;whiteSpace=wrap;rounded=0;fontSize=16;" vertex="1" parent="1">
          <mxGeometry x="690" y="710" width="60" height="30" as="geometry" />
        </mxCell>
        <mxCell id="QqICuxj03aexZKJ_AvJ_-21" style="edgeStyle=none;curved=1;rounded=0;orthogonalLoop=1;jettySize=auto;html=1;fontSize=12;startSize=8;endSize=8;" edge="1" parent="1" source="QqICuxj03aexZKJ_AvJ_-22" target="QqICuxj03aexZKJ_AvJ_-24">
          <mxGeometry relative="1" as="geometry" />
        </mxCell>
        <mxCell id="QqICuxj03aexZKJ_AvJ_-22" value="Output &quot;please input your address&quot;" style="shape=parallelogram;perimeter=parallelogramPerimeter;whiteSpace=wrap;html=1;fixedSize=1;" vertex="1" parent="1">
          <mxGeometry x="556" y="980" width="120" height="60" as="geometry" />
        </mxCell>
        <mxCell id="QqICuxj03aexZKJ_AvJ_-61" style="edgeStyle=orthogonalEdgeStyle;rounded=0;orthogonalLoop=1;jettySize=auto;html=1;" edge="1" parent="1" source="QqICuxj03aexZKJ_AvJ_-24">
          <mxGeometry relative="1" as="geometry">
            <mxPoint x="616" y="1179.1568340226718" as="targetPoint" />
          </mxGeometry>
        </mxCell>
        <mxCell id="QqICuxj03aexZKJ_AvJ_-24" value="input &lt;b&gt;alamat&lt;/b&gt;" style="shape=parallelogram;perimeter=parallelogramPerimeter;whiteSpace=wrap;html=1;fixedSize=1;" vertex="1" parent="1">
          <mxGeometry x="556" y="1080" width="120" height="60" as="geometry" />
        </mxCell>
        <mxCell id="QqICuxj03aexZKJ_AvJ_-25" value="" style="endArrow=none;html=1;rounded=0;fontSize=12;startSize=8;endSize=8;curved=1;exitX=0;exitY=0.5;exitDx=0;exitDy=0;" edge="1" parent="1" source="QqICuxj03aexZKJ_AvJ_-8">
          <mxGeometry width="50" height="50" relative="1" as="geometry">
            <mxPoint x="370" y="490" as="sourcePoint" />
            <mxPoint x="250" y="491" as="targetPoint" />
          </mxGeometry>
        </mxCell>
        <mxCell id="QqICuxj03aexZKJ_AvJ_-26" value="" style="endArrow=none;html=1;rounded=0;fontSize=12;startSize=8;endSize=8;curved=1;" edge="1" parent="1">
          <mxGeometry width="50" height="50" relative="1" as="geometry">
            <mxPoint x="250" y="490" as="sourcePoint" />
            <mxPoint x="250" y="280" as="targetPoint" />
          </mxGeometry>
        </mxCell>
        <mxCell id="QqICuxj03aexZKJ_AvJ_-27" value="" style="endArrow=classic;html=1;rounded=0;fontSize=12;startSize=8;endSize=8;curved=1;" edge="1" parent="1">
          <mxGeometry width="50" height="50" relative="1" as="geometry">
            <mxPoint x="250" y="280" as="sourcePoint" />
            <mxPoint x="390" y="280" as="targetPoint" />
          </mxGeometry>
        </mxCell>
        <mxCell id="QqICuxj03aexZKJ_AvJ_-28" value="N" style="text;html=1;align=center;verticalAlign=middle;whiteSpace=wrap;rounded=0;fontSize=16;" vertex="1" parent="1">
          <mxGeometry x="280" y="460" width="60" height="30" as="geometry" />
        </mxCell>
        <mxCell id="QqICuxj03aexZKJ_AvJ_-30" value="Payment" style="rounded=0;whiteSpace=wrap;html=1;" vertex="1" parent="1">
          <mxGeometry x="551" y="1920" width="120" height="60" as="geometry" />
        </mxCell>
        <mxCell id="QqICuxj03aexZKJ_AvJ_-31" value="&quot;are you sure the data is correct?&quot;" style="rhombus;whiteSpace=wrap;html=1;" vertex="1" parent="1">
          <mxGeometry x="560" y="1645" width="80" height="80" as="geometry" />
        </mxCell>
        <mxCell id="QqICuxj03aexZKJ_AvJ_-32" value="" style="endArrow=classic;html=1;rounded=0;entryX=1;entryY=0.5;entryDx=0;entryDy=0;" edge="1" parent="1">
          <mxGeometry width="50" height="50" relative="1" as="geometry">
            <mxPoint x="840" y="1951" as="sourcePoint" />
            <mxPoint x="680" y="1951" as="targetPoint" />
          </mxGeometry>
        </mxCell>
        <mxCell id="QqICuxj03aexZKJ_AvJ_-33" value="" style="endArrow=none;html=1;rounded=0;" edge="1" parent="1">
          <mxGeometry width="50" height="50" relative="1" as="geometry">
            <mxPoint x="840" y="1952" as="sourcePoint" />
            <mxPoint x="840" y="1682" as="targetPoint" />
          </mxGeometry>
        </mxCell>
        <mxCell id="QqICuxj03aexZKJ_AvJ_-34" value="" style="endArrow=none;html=1;rounded=0;exitX=1;exitY=0.5;exitDx=0;exitDy=0;" edge="1" parent="1">
          <mxGeometry width="50" height="50" relative="1" as="geometry">
            <mxPoint x="640" y="1684" as="sourcePoint" />
            <mxPoint x="840" y="1683" as="targetPoint" />
          </mxGeometry>
        </mxCell>
        <mxCell id="QqICuxj03aexZKJ_AvJ_-35" value="Y" style="text;html=1;align=center;verticalAlign=middle;whiteSpace=wrap;rounded=0;" vertex="1" parent="1">
          <mxGeometry x="788" y="1831" width="60" height="30" as="geometry" />
        </mxCell>
        <mxCell id="QqICuxj03aexZKJ_AvJ_-36" value="" style="endArrow=classic;html=1;rounded=0;entryX=0;entryY=0.5;entryDx=0;entryDy=0;" edge="1" parent="1">
          <mxGeometry width="50" height="50" relative="1" as="geometry">
            <mxPoint x="470" y="940" as="sourcePoint" />
            <mxPoint x="596" y="940" as="targetPoint" />
          </mxGeometry>
        </mxCell>
        <mxCell id="QqICuxj03aexZKJ_AvJ_-37" value="" style="endArrow=none;html=1;rounded=0;" edge="1" parent="1">
          <mxGeometry width="50" height="50" relative="1" as="geometry">
            <mxPoint x="473" y="1689" as="sourcePoint" />
            <mxPoint x="470" y="940" as="targetPoint" />
          </mxGeometry>
        </mxCell>
        <mxCell id="QqICuxj03aexZKJ_AvJ_-39" value="N" style="text;html=1;align=center;verticalAlign=middle;whiteSpace=wrap;rounded=0;" vertex="1" parent="1">
          <mxGeometry x="487" y="1659" width="60" height="30" as="geometry" />
        </mxCell>
        <mxCell id="QqICuxj03aexZKJ_AvJ_-40" value="End" style="rounded=1;whiteSpace=wrap;html=1;" vertex="1" parent="1">
          <mxGeometry x="563" y="2361" width="120" height="60" as="geometry" />
        </mxCell>
        <mxCell id="QqICuxj03aexZKJ_AvJ_-51" style="edgeStyle=orthogonalEdgeStyle;rounded=0;orthogonalLoop=1;jettySize=auto;html=1;" edge="1" parent="1" source="QqICuxj03aexZKJ_AvJ_-49" target="QqICuxj03aexZKJ_AvJ_-50">
          <mxGeometry relative="1" as="geometry" />
        </mxCell>
        <mxCell id="QqICuxj03aexZKJ_AvJ_-49" value="output&quot;your&amp;nbsp;recipient&#39;s name&quot;" style="shape=parallelogram;perimeter=parallelogramPerimeter;whiteSpace=wrap;html=1;fixedSize=1;" vertex="1" parent="1">
          <mxGeometry x="551" y="1180" width="120" height="60" as="geometry" />
        </mxCell>
        <mxCell id="QqICuxj03aexZKJ_AvJ_-50" value="input your name" style="shape=parallelogram;perimeter=parallelogramPerimeter;whiteSpace=wrap;html=1;fixedSize=1;" vertex="1" parent="1">
          <mxGeometry x="551" y="1301" width="120" height="60" as="geometry" />
        </mxCell>
        <mxCell id="QqICuxj03aexZKJ_AvJ_-65" style="edgeStyle=orthogonalEdgeStyle;rounded=0;orthogonalLoop=1;jettySize=auto;html=1;" edge="1" parent="1" source="QqICuxj03aexZKJ_AvJ_-52">
          <mxGeometry relative="1" as="geometry">
            <mxPoint x="601" y="1514.137901569235" as="targetPoint" />
          </mxGeometry>
        </mxCell>
        <mxCell id="QqICuxj03aexZKJ_AvJ_-52" value="ouput&quot;your phone number&quot;" style="shape=parallelogram;perimeter=parallelogramPerimeter;whiteSpace=wrap;html=1;fixedSize=1;" vertex="1" parent="1">
          <mxGeometry x="541" y="1405" width="120" height="60" as="geometry" />
        </mxCell>
        <mxCell id="QqICuxj03aexZKJ_AvJ_-53" value="input phone number" style="shape=parallelogram;perimeter=parallelogramPerimeter;whiteSpace=wrap;html=1;fixedSize=1;" vertex="1" parent="1">
          <mxGeometry x="538" y="1515" width="120" height="60" as="geometry" />
        </mxCell>
        <mxCell id="QqICuxj03aexZKJ_AvJ_-57" value="" style="endArrow=none;html=1;rounded=0;entryX=0;entryY=0.5;entryDx=0;entryDy=0;" edge="1" parent="1" target="QqICuxj03aexZKJ_AvJ_-31">
          <mxGeometry width="50" height="50" relative="1" as="geometry">
            <mxPoint x="472" y="1686" as="sourcePoint" />
            <mxPoint x="577" y="1756" as="targetPoint" />
          </mxGeometry>
        </mxCell>
        <mxCell id="QqICuxj03aexZKJ_AvJ_-63" style="edgeStyle=orthogonalEdgeStyle;rounded=0;orthogonalLoop=1;jettySize=auto;html=1;entryX=0.583;entryY=0.021;entryDx=0;entryDy=0;entryPerimeter=0;" edge="1" parent="1" source="QqICuxj03aexZKJ_AvJ_-50" target="QqICuxj03aexZKJ_AvJ_-52">
          <mxGeometry relative="1" as="geometry" />
        </mxCell>
        <mxCell id="QqICuxj03aexZKJ_AvJ_-66" style="edgeStyle=orthogonalEdgeStyle;rounded=0;orthogonalLoop=1;jettySize=auto;html=1;entryX=0.468;entryY=0.013;entryDx=0;entryDy=0;entryPerimeter=0;" edge="1" parent="1" source="QqICuxj03aexZKJ_AvJ_-53" target="QqICuxj03aexZKJ_AvJ_-31">
          <mxGeometry relative="1" as="geometry" />
        </mxCell>
        <mxCell id="QqICuxj03aexZKJ_AvJ_-67" value="choose&amp;nbsp;&lt;div&gt;1.Indomaret&lt;/div&gt;&lt;div&gt;2.ovo&lt;/div&gt;&lt;div&gt;3.bni&quot;&lt;/div&gt;" style="rhombus;whiteSpace=wrap;html=1;" vertex="1" parent="1">
          <mxGeometry x="569" y="2034" width="80" height="80" as="geometry" />
        </mxCell>
        <mxCell id="QqICuxj03aexZKJ_AvJ_-68" value="output&quot;show the code to cashier indomaret&quot;&lt;div&gt;your code&lt;br&gt;1224&lt;/div&gt;" style="shape=parallelogram;perimeter=parallelogramPerimeter;whiteSpace=wrap;html=1;fixedSize=1;" vertex="1" parent="1">
          <mxGeometry x="363" y="2180" width="120" height="60" as="geometry" />
        </mxCell>
        <mxCell id="QqICuxj03aexZKJ_AvJ_-69" value="output&quot;your code 1543&quot;" style="shape=parallelogram;perimeter=parallelogramPerimeter;whiteSpace=wrap;html=1;fixedSize=1;" vertex="1" parent="1">
          <mxGeometry x="560" y="2177" width="120" height="60" as="geometry" />
        </mxCell>
        <mxCell id="QqICuxj03aexZKJ_AvJ_-70" value="output&quot;your virtual account is 31234&quot;" style="shape=parallelogram;perimeter=parallelogramPerimeter;whiteSpace=wrap;html=1;fixedSize=1;" vertex="1" parent="1">
          <mxGeometry x="758" y="2180" width="120" height="60" as="geometry" />
        </mxCell>
      </root>
    </mxGraphModel>
  </diagram>
</mxfile>
